<?xml version="1.0" encoding="UTF-8" standalone="no"?>
<!DOCTYPE svg PUBLIC "-//W3C//DTD SVG 1.1//EN" "http://www.w3.org/Graphics/SVG/1.1/DTD/svg11.dtd">
<svg version="1.1" xmlns="http://www.w3.org/2000/svg" xmlns:xlink="http://www.w3.org/1999/xlink" preserveAspectRatio="xMidYMid meet" viewBox="88.68791292366754 64.7348700199793 452.9211536466446 319.81944545621127" width="439.92" height="306.32"><defs><path d="M112.7 321.47L111.93 321.39L111.17 321.28L110.42 321.15L109.68 320.98L108.95 320.78L108.23 320.56L107.53 320.31L106.84 320.03L106.16 319.73L105.5 319.4L104.85 319.05L104.22 318.67L103.6 318.27L103 317.85L102.41 317.41L101.85 316.94L101.3 316.45L100.78 315.95L100.27 315.42L99.78 314.87L99.31 314.31L98.87 313.72L98.45 313.12L98.05 312.51L97.67 311.87L97.32 311.22L96.99 310.56L96.69 309.88L96.41 309.19L96.16 308.49L95.94 307.77L95.74 307.04L95.58 306.3L95.44 305.55L95.33 304.79L95.25 304.02L95.2 303.24L95.19 302.46L95.19 231.39L95.2 230.61L95.25 229.83L95.33 229.06L95.44 228.3L95.58 227.55L95.74 226.81L95.94 226.08L96.16 225.36L96.41 224.66L96.69 223.97L96.99 223.29L97.32 222.63L97.67 221.98L98.05 221.34L98.45 220.73L98.87 220.13L99.31 219.54L99.78 218.98L100.27 218.43L100.78 217.9L101.3 217.4L101.85 216.91L102.41 216.44L103 216L103.6 215.57L104.22 215.17L104.85 214.8L105.5 214.45L106.16 214.12L106.84 213.82L107.53 213.54L108.23 213.29L108.95 213.07L109.68 212.87L110.42 212.7L111.17 212.57L111.93 212.46L112.7 212.38L113.48 212.33L114.26 212.32L516.03 212.32L516.82 212.33L517.6 212.38L518.37 212.46L519.13 212.57L519.88 212.7L520.62 212.87L521.35 213.07L522.06 213.29L522.77 213.54L523.46 213.82L524.14 214.12L524.8 214.45L525.45 214.8L526.08 215.17L526.7 215.57L527.3 216L527.88 216.44L528.45 216.91L528.99 217.4L529.52 217.9L530.03 218.43L530.52 218.98L530.98 219.54L531.43 220.13L531.85 220.73L532.25 221.34L532.63 221.98L532.98 222.63L533.31 223.29L533.61 223.97L533.89 224.66L534.14 225.36L534.36 226.08L534.55 226.81L534.72 227.55L534.86 228.3L534.97 229.06L535.05 229.83L535.09 230.61L535.11 231.39L535.11 302.46L535.09 303.24L535.05 304.02L534.97 304.79L534.86 305.55L534.72 306.3L534.55 307.04L534.36 307.77L534.14 308.49L533.89 309.19L533.61 309.88L533.31 310.56L532.98 311.22L532.63 311.87L532.25 312.51L531.85 313.12L531.43 313.72L530.98 314.31L530.52 314.87L530.03 315.42L529.52 315.95L528.99 316.45L528.45 316.94L527.88 317.41L527.3 317.85L526.7 318.27L526.08 318.67L525.45 319.05L524.8 319.4L524.14 319.73L523.46 320.03L522.77 320.31L522.06 320.56L521.35 320.78L520.62 320.98L519.88 321.15L519.13 321.28L518.37 321.39L517.6 321.47L516.82 321.52L516.03 321.53L477.94 321.53L501.47 378.05L422.54 321.53L114.26 321.53L113.48 321.52L112.7 321.47Z" id="b1bWAjUUJv"></path><path d="" id="a5x1lUFYRv"></path><text id="a74h7KWW" x="186.67" y="278.38" font-size="65" font-family="Open Sans" font-weight="700" font-style="normal" letter-spacing="6.5" alignment-baseline="before-edge" transform="matrix(1 0 0 1 19.94849025561615 -51.39975318959159)" style="line-height:100%" xml:space="preserve" dominant-baseline="text-before-edge"><tspan x="186.67" dy="0em" alignment-baseline="before-edge" dominant-baseline="text-before-edge" text-anchor="start">ANTH</tspan></text><style id="opensans700normal">
    @font-face {
    font-family: "Open Sans";
    font-weight: 700;
    src: url("data:base64,");
    }
    </style><text id="c3566ksAgG" x="186.67" y="278.38" font-size="65" font-family="Open Sans" font-weight="800" font-style="normal" letter-spacing="6.5" alignment-baseline="before-edge" transform="matrix(1 0 0 1 231.0151559050302 -51.39975318959159)" style="line-height:100%" xml:space="preserve" dominant-baseline="text-before-edge"><tspan x="186.67" dy="0em" alignment-baseline="before-edge" dominant-baseline="text-before-edge" text-anchor="start">US</tspan></text><style id="opensans800normal">
    @font-face {
    font-family: "Open Sans";
    font-weight: 800;
    src: url("data:base64,");
    }
    </style><text id="ddSIu1kEA" x="186.67" y="278.38" font-size="65" font-family="Open Sans" font-weight="700" font-style="normal" letter-spacing="6.5" alignment-baseline="before-edge" transform="matrix(1 0 0 1 -77.95599842381054 -50.92053203295106)" style="line-height:100%" xml:space="preserve" dominant-baseline="text-before-edge"><tspan x="186.67" dy="0em" alignment-baseline="before-edge" dominant-baseline="text-before-edge" text-anchor="start">D</tspan></text><path d="" id="afjvcfOPm"></path><path d="M197.42 262.1L198.52 262.65L199.5 263.38L200.32 264.31L200.94 265.38L201.34 266.53L201.52 267.75L201.49 269.01L201.25 270.28L200.81 271.54L200.18 272.76L199.36 273.93L198.35 275.01L197.18 275.99L195.89 276.8L194.55 277.42L193.18 277.84L191.82 278.06L190.49 278.09L189.21 277.93L188 277.57L186.9 277.03L185.92 276.29L185.1 275.36L184.47 274.3L184.08 273.14L183.9 271.92L183.93 270.67L183.98 270.4L183.62 260.76L184.79 260.34L185.88 259.65L186.79 258.74L187.09 258.28L196.24 261.75L197.42 262.1ZM178.52 259.65L179.61 260.34L180.85 260.79L180.94 260.8L180.47 270.55L180.5 271.78L180.32 273L179.92 274.15L179.3 275.22L178.47 276.15L177.5 276.88L176.39 277.43L175.19 277.79L173.91 277.95L172.57 277.92L171.21 277.7L169.85 277.28L168.51 276.66L167.22 275.84L166.04 274.87L165.04 273.78L164.22 272.62L163.59 271.39L163.15 270.13L162.91 268.86L162.87 267.61L163.05 266.39L163.45 265.23L164.08 264.16L164.9 263.24L165.88 262.5L166.98 261.95L168.19 261.6L168.45 261.56L177.33 258.3L177.61 258.74L178.52 259.65ZM201.6 241.32L202.74 241.94L203.8 242.75L204.77 243.73L205.62 244.87L206.35 246.16L206.91 247.58L207.29 249.06L207.46 250.53L207.44 251.95L207.23 253.31L206.85 254.59L206.3 255.76L205.58 256.8L204.72 257.68L203.72 258.38L202.59 258.87L201.38 259.14L200.15 259.16L198.94 258.96L197.76 258.54L197.53 258.41L188.01 255.71L188.09 255.06L187.93 253.71L187.49 252.47L186.98 251.67L193.08 244.07L193.78 243.06L194.64 242.18L195.64 241.48L196.77 240.98L197.98 240.72L199.21 240.7L200.42 240.9L201.6 241.32ZM184.84 252.3L185.66 253.52L185.96 255L185.66 256.49L184.84 257.7L183.63 258.52L182.14 258.82L180.65 258.52L179.44 257.7L178.62 256.49L178.32 255L178.62 253.52L179.44 252.3L180.65 251.48L182.14 251.18L183.63 251.48L184.84 252.3ZM167.99 240.46L169.12 240.96L170.12 241.66L170.99 242.54L171.7 243.58L171.81 243.82L177.69 251.3L177.61 251.37L176.91 252.47L176.47 253.71L176.31 255.06L176.36 255.47L166.97 258.03L165.82 258.44L164.61 258.64L163.38 258.62L162.17 258.35L161.04 257.86L160.04 257.16L159.18 256.28L158.47 255.24L157.91 254.07L157.53 252.79L157.32 251.43L157.3 250.01L157.47 248.54L157.85 247.06L158.42 245.64L159.14 244.35L159.99 243.21L160.96 242.23L162.02 241.42L163.16 240.8L164.34 240.38L165.55 240.18L166.78 240.2L167.99 240.46ZM185.56 229.84L186.91 230.31L188.15 230.92L189.24 231.68L190.18 232.57L190.95 233.57L191.52 234.66L191.87 235.83L192 237.06L191.87 238.29L191.52 239.46L190.95 240.55L190.18 241.55L189.99 241.73L184.64 249.71L183.55 249.32L182.2 249.17L180.85 249.32L180.24 249.54L174.99 241.53L174.24 240.55L173.66 239.46L173.31 238.29L173.18 237.06L173.31 235.83L173.66 234.66L174.24 233.57L175 232.57L175.94 231.68L177.04 230.92L178.27 230.31L179.62 229.84L181.07 229.56L182.59 229.46L184.12 229.56L185.56 229.84Z" id="a2tSrQ6SO"></path><path d="M177.65 280.7L177.82 280.7L177.65 280.51L182.85 275.9L187.11 280.7L187.11 296.92L177.65 296.92L177.65 280.7Z" id="c1b4Z1irZ3"></path></defs><g><g><use xlink:href="#b1bWAjUUJv" opacity="1" fill="#d1d1d1" fill-opacity="0"></use><g><use xlink:href="#b1bWAjUUJv" opacity="1" fill-opacity="0" stroke="#2439ac" stroke-width="13" stroke-opacity="1"></use></g></g><g><g><use xlink:href="#a5x1lUFYRv" opacity="1" fill-opacity="0" stroke="#000000" stroke-width="1" stroke-opacity="1"></use></g></g><g id="blwLbSrLs"><use xlink:href="#a74h7KWW" opacity="1" fill="#000000" fill-opacity="1"></use></g><g id="d17CiiA22R"><use xlink:href="#c3566ksAgG" opacity="1" fill="#ad32a5" fill-opacity="1"></use></g><g id="c15G7vxwcm"><use xlink:href="#ddSIu1kEA" opacity="1" fill="#000000" fill-opacity="1"></use></g><g><g><use xlink:href="#afjvcfOPm" opacity="1" fill-opacity="0" stroke="#ad32a5" stroke-width="14" stroke-opacity="1"></use></g></g><g><use xlink:href="#a2tSrQ6SO" opacity="1" fill="#ad32a5" fill-opacity="1"></use></g><g><use xlink:href="#c1b4Z1irZ3" opacity="1" fill="#ad32a5" fill-opacity="1"></use></g></g></svg>